<?xml version="1.0" encoding="UTF-8"?>
<!-- Created with Inkscape (http://www.inkscape.org/) -->
<svg width="2013.5" height="770.82" version="1.1" viewBox="0 0 532.74166 203.94736" xmlns="http://www.w3.org/2000/svg" xmlns:cc="http://creativecommons.org/ns#" xmlns:dc="http://purl.org/dc/elements/1.1/" xmlns:rdf="http://www.w3.org/1999/02/22-rdf-syntax-ns#">
 <metadata>
  <rdf:RDF>
   <cc:Work rdf:about="">
    <dc:format>image/svg+xml</dc:format>
    <dc:type rdf:resource="http://purl.org/dc/dcmitype/StillImage"/>
    <dc:title/>
   </cc:Work>
  </rdf:RDF>
 </metadata>
 <g transform="translate(309.86 -326.77)">
  <g fill="#008080">
   <path d="m-298.1 529.14c-2.6854-2.5961-13.456-65.062-11.521-66.819 0.96352-0.87494 5.4106-1.5325 10.364-1.5325 5.1494 0 9.2124 0.62293 9.9957 1.5325 0.72585 0.8429 2.4208 7.7783 3.7666 15.412l2.4469 13.879 10.603-15.105c9.3675-13.345 11.138-15.151 15.188-15.501 6.3691-0.54887 8.7509 1.3775 10.012 8.0973 0.59698 3.1813 1.8751 9.3267 2.8402 13.656l1.7548 7.8722 9.9795-14.615 9.9795-14.615h10.603c9.3954 0 10.644 0.27933 10.964 2.4521 0.19862 1.3486-9.3443 16.797-21.207 34.329-20.721 30.625-21.765 31.891-26.6 32.246-2.768 0.20301-5.7745-0.34871-6.6811-1.226-0.9066-0.87734-2.9548-7.3882-4.5516-14.469-1.5968-7.0803-3.2644-13.339-3.7057-13.908-0.44132-0.56931-4.8128 4.672-9.7144 11.647-12.52 17.817-12.904 18.2-18.275 18.2-2.5611 0-5.3698-0.68964-6.2417-1.5325z" stroke-width="1.4142"/>
   <path transform="matrix(.26458 0 0 .26458 -309.86 326.77)" d="m540.17 502.65c-1.1235 0.01-2.24 0.0625-3.3359 0.1582-13.623 1.1902-28.667 17.232-103.42 110.29-123.1 153.23-114.98 141.42-103.3 150.2 6.0194 4.524 20.399 7.3516 37.381 7.3516 30.396 0 49.771-11.246 64.072-37.195 7.4959-13.601 8.1937-13.775 55.365-13.775h47.775l3.1602 21.08c1.7388 11.595 4.8134 22.323 6.832 23.84 8.6665 6.5135 62.868 6.5878 74.373 0.10156 11.589-6.5332 11.118-9.4748-20.623-128.96-17.865-67.249-35.449-124.98-39.076-128.3-3.1734-2.9002-11.335-4.8597-19.199-4.791zm-28.498 129.81c3.6316-0.17417 5.68 4.9059 7.3086 15.391 2.3492 15.124 1.3531 16.219-14.74 16.219-20.23 0-20.652-1.2033-6.6797-18.98 6.4702-8.2322 10.907-12.475 14.111-12.629z" stroke-width="5.3451"/>
   <path d="m-125.81 529.75c-1.6835-2.0472-17.485-65.741-16.694-67.291 1.1226-2.1988 19.772-2.3159 21.655-0.13598 0.72585 0.84063 3.1603 8.8114 5.4099 17.713l4.0902 16.184 12.223-17.406 12.223-17.406 11.034-0.3629c8.7601-0.28814 11.233 0.028 12.002 1.5339 0.58046 1.1369-7.4003 13.317-19.92 30.401-29.295 39.975-27.191 37.699-34.85 37.699-3.5246 0-6.7521-0.41801-7.1722-0.92891z" stroke-width="1.4142"/>
   <path d="m-72.063 529.08c-2.7618-1.5178-2.5186-3.208 4.8066-33.409 4.2436-17.496 8.4385-32.5 9.322-33.343 2.3582-2.2497 57.19-2.1776 59.681 0.0785 1.2889 1.1672 1.2316 3.2782-0.20807 7.6627l-1.9871 6.0517-18.99 0.34427c-18.052 0.32725-19.038 0.47871-19.961 3.0651-1.9375 5.432-1.4802 5.6696 11.627 6.0408l12.642 0.35808-0.29379 6.084c-0.38431 7.9582-2.8488 9.2415-17.749 9.2415h-11.709l-1.0111 4.5976c-1.759 7.998-2.4182 7.6627 15.066 7.6627 12.022 0 16.607 0.44754 18.059 1.7625 2.8328 2.5654 0.5072 12.694-3.2628 14.21-4.6589 1.874-52.515 1.5266-56.033-0.40673z" stroke-width="1.4142"/>
   <path transform="matrix(.26458 0 0 .26458 -309.86 326.77)" d="m1344.4 501.94c-80.131-0.21632-150.53 43.803-174.87 114.03-23.559 67.979 1.0532 127.27 61.586 148.35 30.595 10.655 104.73 6.4288 141.81-8.084 61.515-24.079 101.86-83.422 101.59-149.42-0.2181-53.303-30.21-88.693-84.83-100.09-15.276-3.1886-30.45-4.7451-45.289-4.7852zm-13.01 60.188c44.264 0 62.642 25.732 51.303 71.834-7.8037 31.727-19.516 48.873-43.93 64.312-25.222 15.95-62.48 16.846-76.467 1.8379-11.642-12.493-12.687-52.705-2.0605-79.361 8.9859-22.542 52.78-58.623 71.154-58.623z" stroke-width="5.3451"/>
   <path transform="matrix(.26458 0 0 .26458 -309.86 326.77)" d="m1874.1 504.32c-35.486-0.0672-62.563 1.9591-66.588 4.9844-3.7311 2.8042-19.802 58.584-35.713 123.96-15.91 65.371-30.397 118.86-32.193 118.86s-17.755-21.894-35.463-48.654c-19.174-28.976-29.093-48.661-24.525-48.676 12.341-0.0345 48.467-27.946 57.725-44.6 12.337-22.191 10.621-52.357-4.002-70.383-20.738-25.565-58.609-35.295-134.66-34.598-35.168 0.32244-66.678 2.6415-70.022 5.1543s-18.227 54.288-33.074 115.05c-14.847 60.766-28.424 115.02-30.172 120.57-1.8325 5.8182 0.9262 13.176 6.5156 17.377 11.715 8.8048 57.74 9.763 71.777 1.4941 6.1145-3.6018 13.832-22.879 20.404-50.973 6.0848-26.01 13.529-45.143 17.547-45.094 3.8384 0.0467 19.465 21.102 34.725 46.791 15.259 25.689 32.418 48.59 38.129 50.889 17.138 6.8982 64.79 4.9385 75.49-3.1035 8.8078-6.6198 10.569-6.6198 19.377 0 7.4064 5.5666 23.077 7.2832 66.525 7.2832 97.683 0 156.63-17.485 179.14-53.131 14.446-22.879 13.939-58.949-1.0996-78.105-11.703-14.907-11.725-15.644-0.7461-25.834 36.588-33.959 22.054-81.21-30.535-99.271-22.941-7.8789-40.858-9.8999-88.564-9.9902zm19.59 57.588c6.3804-0.0698 13.798 0.89428 21.215 3.0332 11.65 3.3602 12.848 17.348 2.0449 23.889-4.2387 2.5664-17.128 6.1825-28.643 8.0352-19.795 3.1848-20.724 2.7717-17.039-7.5742 2.1435-6.0184 3.9309-14.593 3.9804-19.053 0.054-5.223 7.8071-8.2137 18.442-8.3301zm-271.6 4.8555c37.02 0 50.922 20.187 23.752 34.49-17.311 9.113-54.117 9.6856-54.117 0.8418 0-3.5043 1.7341-12.887 3.8535-20.852 3.477-13.066 6.0671-14.48 26.512-14.48zm243.56 84.506c1.6231 0.0176 3.4907 0.2941 5.6934 0.73828 7.2834 1.4686 16.513 2.6966 20.51 2.7344 12.33 0.10734 26.644 14.049 26.644 25.949 0 7.8004-6.2334 14.178-20.039 20.504-23.821 10.916-53.947 12.309-53.947 2.4941 0-3.6975 3.0575-17.439 6.7949-30.537 4.8979-17.164 7.3104-21.959 14.344-21.883z" stroke-width="5.3451"/>
   <path d="m-73.342 442.09c-7.3194-3.3304-13.868-9.7361-15.94-15.592-0.8414-2.3779-2.0015-13.151-2.578-23.94-0.57653-10.789-1.9728-24.168-3.1027-29.731-1.13-5.5631-1.7409-10.115-1.3575-10.115 4.3298 0 18.022 9.0309 20.272 13.371 0.84133 1.6225 2.1892 11.829 2.9952 22.682 1.5375 20.7 3.9072 28.421 12.107 39.448 3.2516 4.3725 3.5042 5.3725 1.5031 5.9497-4.3057 1.2418-7.7419 0.72951-13.899-2.0722z" stroke-width="1.4142"/>
  </g>
  <path d="m-30.139 442.82c-10.558-2.8097-22.006-11.29-27.386-20.285-4.4855-7.5001-4.6548-8.5442-5.8271-35.923-1.1844-27.663-3.3539-46.033-6.4434-54.558-2.3127-6.3817-2.2292-6.4213 6.5166-3.0904 10.142 3.8628 20.79 12.083 23.003 17.759 0.92965 2.3844 2.355 14.818 3.1674 27.63 0.81244 12.812 2.3049 26.559 3.3165 30.548 3.4782 13.715 13.936 32.281 20.485 36.365 1.965 1.2257 2.0312 1.7282 0.33392 2.5373-3.0768 1.4669-9.3034 1.1109-17.165-0.98144z" fill="#49445d" stroke-width="1.4142"/>
  <path d="m-8.091 411.44c-7.3194-3.3304-13.868-9.7361-15.94-15.592-0.8414-2.3779-2.0015-13.151-2.578-23.94-0.57653-10.789-1.9728-24.168-3.1027-29.731-1.13-5.5631-1.7409-10.115-1.3575-10.115 4.3298 0 18.022 9.0309 20.272 13.371 0.84133 1.6225 2.1892 11.829 2.9953 22.682 1.5375 20.7 3.9072 28.421 12.107 39.448 3.2516 4.3725 3.5042 5.3725 1.5031 5.9497-4.3057 1.2418-7.7419 0.7295-13.899-2.0723z" fill="#008080" stroke-width="1.4142"/>
 </g>
</svg>
